<svg width="32" height="32" viewBox="0 0 32 32" fill="none" xmlns="http://www.w3.org/2000/svg">
<path d="M25.5547 22.3608C25.6598 21.9276 26.2758 21.9276 26.3809 22.3608L26.6699 23.5532C26.7075 23.7076 26.8281 23.8281 26.9824 23.8657L28.1748 24.1548C28.6081 24.2598 28.6081 24.8759 28.1748 24.981L26.9824 25.27C26.8279 25.3076 26.7074 25.4289 26.6699 25.5835L26.3809 26.7759C26.2757 27.2088 25.6599 27.2088 25.5547 26.7759L25.2656 25.5835C25.2281 25.4288 25.1068 25.3075 24.9521 25.27L23.7598 24.981C23.3271 24.8756 23.327 24.2601 23.7598 24.1548L24.9521 23.8657C25.1068 23.8282 25.2281 23.7078 25.2656 23.5532L25.5547 22.3608ZM12.9873 7.51709C13.6452 4.80757 17.3996 4.72295 18.251 7.26318L18.3242 7.51807L18.3496 7.60205C18.3801 7.6842 18.4252 7.76071 18.4824 7.82764C18.5587 7.91676 18.6553 7.98678 18.7637 8.03174C18.8722 8.07666 18.9903 8.0955 19.1074 8.08643C19.2245 8.07732 19.3382 8.04111 19.4385 7.97998V7.979C21.8967 6.4817 24.711 9.29528 23.2139 11.7544C23.1529 11.8546 23.1156 11.9675 23.1064 12.0845C23.0974 12.2015 23.1162 12.3197 23.1611 12.4282C23.2061 12.5366 23.2761 12.6331 23.3652 12.7095C23.4544 12.7858 23.5608 12.8399 23.6748 12.8677H23.6738C26.3841 13.5253 26.4688 17.2804 23.9277 18.1313L23.6738 18.2046C23.5597 18.2322 23.4535 18.2865 23.3643 18.3628C23.2751 18.4391 23.2051 18.5356 23.1602 18.644C23.1152 18.7526 23.0964 18.8706 23.1055 18.9878C23.1146 19.1049 23.1508 19.2186 23.2119 19.3188H23.2129C24.7101 21.777 21.8965 24.5911 19.4375 23.0942C19.3374 23.0333 19.2243 22.996 19.1074 22.9868C18.9904 22.9778 18.8721 22.9966 18.7637 23.0415C18.6552 23.0864 18.5588 23.1565 18.4824 23.2456C18.406 23.3348 18.352 23.4411 18.3242 23.5552C17.6662 26.2649 13.9115 26.349 13.0605 23.8081L12.9873 23.5542C12.9597 23.4401 12.9054 23.3339 12.8291 23.2446C12.7528 23.1555 12.6562 23.0855 12.5479 23.0405C12.4393 22.9956 12.3212 22.9768 12.2041 22.9858C12.087 22.9949 11.9733 23.0312 11.873 23.0923V23.0933C9.41484 24.5907 6.60051 21.777 8.09766 19.3179C8.15865 19.2177 8.19595 19.1047 8.20508 18.9878C8.21414 18.8708 8.19527 18.7525 8.15039 18.644C8.1055 18.5356 8.03537 18.4392 7.94629 18.3628C7.85716 18.2864 7.75075 18.2324 7.63672 18.2046V18.2036C4.83982 17.5243 4.84023 13.5463 7.6377 12.8677L7.72168 12.8423C7.80383 12.8118 7.88033 12.7667 7.94727 12.7095C8.03641 12.6332 8.10639 12.5366 8.15137 12.4282C8.19633 12.3197 8.21512 12.2016 8.20605 12.0845C8.19698 11.9674 8.16071 11.8537 8.09961 11.7534H8.09863C6.60115 9.29521 9.41487 6.48087 11.874 7.97803H11.873C12.308 8.24233 12.8677 8.00897 12.9873 7.51709ZM16.3359 7.85596C16.0828 7.27402 15.2288 7.27403 14.9756 7.85596L14.9307 7.98975C14.4911 9.79712 12.4249 10.6541 10.834 9.68701V9.68604C10.1653 9.27891 9.40039 10.0447 9.80664 10.7124C10.0317 11.0816 10.1668 11.4991 10.2002 11.9302C10.2335 12.361 10.1644 12.7936 9.99902 13.1929C9.83355 13.5923 9.57648 13.9479 9.24805 14.229C8.91977 14.51 8.52926 14.7091 8.10938 14.811C7.39702 14.9839 7.35214 15.9451 7.97559 16.2163L8.10938 16.2612L8.26562 16.3042C8.62581 16.4147 8.96007 16.5984 9.24707 16.8442C9.57514 17.1253 9.83276 17.4802 9.99805 17.8794C10.1632 18.2785 10.2316 18.7115 10.1982 19.1421C10.1648 19.5726 10.0303 19.9891 9.80566 20.3579C9.39854 21.0266 10.1644 21.7915 10.832 21.3853C11.2012 21.1602 11.6187 21.0251 12.0498 20.9917C12.4806 20.9584 12.9133 21.0275 13.3125 21.1929C13.7119 21.3584 14.0675 21.6154 14.3486 21.9438C14.6296 22.2721 14.8288 22.6626 14.9307 23.0825C15.1151 23.8422 16.1965 23.8422 16.3809 23.0825L16.4238 22.9263C16.5343 22.566 16.718 22.2319 16.9639 21.9448C17.245 21.6167 17.5998 21.3591 17.999 21.1938C18.3981 21.0287 18.8311 20.9603 19.2617 20.9937C19.6922 21.0271 20.1087 21.1616 20.4775 21.3862C21.1462 21.7931 21.9108 21.0274 21.5049 20.3599C21.2798 19.9907 21.1448 19.5732 21.1113 19.1421C21.078 18.7111 21.147 18.2778 21.3125 17.8784C21.478 17.4792 21.7351 17.1243 22.0635 16.8433C22.3918 16.5623 22.7822 16.3631 23.2021 16.2612L23.3359 16.2163C23.9176 15.9631 23.9176 15.1092 23.3359 14.856L23.2021 14.811C22.7824 14.709 22.3925 14.509 22.0645 14.228C21.7363 13.9469 21.4788 13.592 21.3135 13.1929C21.1483 12.7938 21.08 12.3609 21.1133 11.9302C21.1467 11.4995 21.2812 11.0823 21.5059 10.7134C21.912 10.0449 21.1469 9.28108 20.4795 9.68701C20.1104 9.91208 19.6928 10.0471 19.2617 10.0806C18.8308 10.1139 18.3974 10.0448 17.998 9.87939C17.5989 9.71393 17.2439 9.45669 16.9629 9.12842C16.6819 8.80014 16.4827 8.40964 16.3809 7.98975L16.3359 7.85596ZM15.6553 11.4976C16.7264 11.4976 17.7543 11.9228 18.5117 12.6802C19.269 13.4375 19.6942 14.4647 19.6943 15.5356C19.6943 16.6068 19.2691 17.6347 18.5117 18.3921C17.7543 19.1495 16.7264 19.5747 15.6553 19.5747C14.5843 19.5746 13.5571 19.1493 12.7998 18.3921C12.0424 17.6347 11.6172 16.6068 11.6172 15.5356C11.6173 14.4646 12.0425 13.4375 12.7998 12.6802C13.5571 11.9229 14.5843 11.4977 15.6553 11.4976ZM15.6553 13.4976C15.1147 13.4977 14.5961 13.712 14.2139 14.0942C13.8316 14.4765 13.6173 14.9951 13.6172 15.5356C13.6172 16.0764 13.8315 16.5957 14.2139 16.978C14.5961 17.3602 15.1148 17.5746 15.6553 17.5747C16.196 17.5747 16.7153 17.3604 17.0977 16.978C17.48 16.5957 17.6943 16.0763 17.6943 15.5356C17.6942 14.9951 17.4798 14.4765 17.0977 14.0942C16.7153 13.7119 16.196 13.4976 15.6553 13.4976ZM4.5127 8.96533C5.07214 8.96533 5.52637 9.41956 5.52637 9.979C5.52616 10.5383 5.07201 10.9917 4.5127 10.9917C3.9535 10.9916 3.50021 10.5382 3.5 9.979C3.5 9.41965 3.95337 8.96548 4.5127 8.96533ZM23.7598 4.8999C24.3191 4.8999 24.7733 5.35328 24.7734 5.9126C24.7734 6.47204 24.3192 6.92627 23.7598 6.92627C23.2005 6.92604 22.7471 6.4719 22.7471 5.9126C22.7472 5.35342 23.2006 4.90013 23.7598 4.8999Z" fill="url(#paint0_linear_3834_36307)"/>
<path d="M15.5023 9.73516C15.83 8.28445 17.8971 8.28445 18.2247 9.73516C18.4371 10.6754 19.5161 11.1223 20.3311 10.6076C21.5886 9.81354 23.0502 11.2752 22.2561 12.5327C21.7415 13.3477 22.1884 14.4266 23.1286 14.639C24.5793 14.9667 24.5793 17.0338 23.1286 17.3615C22.1884 17.5738 21.7415 18.6528 22.2561 19.4678C23.0502 20.7253 21.5886 22.187 20.3311 21.3929C19.5161 20.8782 18.4371 21.3251 18.2247 22.2653C17.8971 23.716 15.83 23.716 15.5023 22.2653C15.2899 21.3251 14.211 20.8782 13.396 21.3929C12.1384 22.187 10.6768 20.7253 11.4709 19.4678C11.9856 18.6528 11.5387 17.5738 10.5984 17.3615C9.14773 17.0338 9.14773 14.9667 10.5984 14.639C11.5387 14.4266 11.9856 13.3477 11.4709 12.5327C10.6768 11.2752 12.1384 9.81354 13.396 10.6076C14.211 11.1223 15.2899 10.6754 15.5023 9.73516Z" fill="url(#paint1_linear_3834_36307)" fill-opacity="0.6"/>
<defs>
<linearGradient id="paint0_linear_3834_36307" x1="16" y1="4.8999" x2="16" y2="27.1005" gradientUnits="userSpaceOnUse">
<stop stop-color="#4E97F5"/>
<stop offset="1" stop-color="#C881E7"/>
</linearGradient>
<linearGradient id="paint1_linear_3834_36307" x1="16.8635" y1="3.70898" x2="16.8635" y2="28.2915" gradientUnits="userSpaceOnUse">
<stop stop-color="#5395F4"/>
<stop offset="1" stop-color="#BB84E9"/>
</linearGradient>
</defs>
</svg>
