<svg width="32" height="32" viewBox="0 0 32 32" fill="none" xmlns="http://www.w3.org/2000/svg">
<g clip-path="url(#clip0_3880_556)">
<path d="M7.51054 7.38496C7.635 6.87168 8.365 6.87168 8.48946 7.38496L8.83193 8.79729C8.87637 8.98055 9.01945 9.12363 9.20271 9.16807L10.615 9.51054C11.1283 9.635 11.1283 10.365 10.615 10.4895L9.20271 10.8319C9.01945 10.8764 8.87637 11.0195 8.83193 11.2027L8.48946 12.615C8.365 13.1283 7.635 13.1283 7.51054 12.615L7.16807 11.2027C7.12363 11.0195 6.98055 10.8764 6.79729 10.8319L5.38496 10.4895C4.87168 10.365 4.87168 9.635 5.38496 9.51054L6.79729 9.16807C6.98055 9.12363 7.12363 8.98055 7.16807 8.79729L7.51054 7.38496Z" fill="url(#paint0_linear_3880_556)"/>
<path fill-rule="evenodd" clip-rule="evenodd" d="M8 7.93109L7.75542 8.93972C7.65766 9.34288 7.34288 9.65766 6.93972 9.75542L5.93109 10L6.93972 10.2446C7.34288 10.3423 7.65766 10.6571 7.75542 11.0603L8 12.0689L8.24458 11.0603C8.34234 10.6571 8.65712 10.3423 9.06029 10.2446L10.0689 10L9.06029 9.75542C8.65712 9.65766 8.34234 9.34288 8.24458 8.93972L8 7.93109ZM8.48946 7.38496C8.365 6.87168 7.635 6.87168 7.51054 7.38496L7.16807 8.79729C7.12363 8.98055 6.98055 9.12363 6.79729 9.16807L5.38496 9.51054C4.87168 9.635 4.87168 10.365 5.38496 10.4895L6.79729 10.8319C6.98055 10.8764 7.12363 11.0195 7.16807 11.2027L7.51054 12.615C7.635 13.1283 8.365 13.1283 8.48946 12.615L8.83193 11.2027C8.87637 11.0195 9.01945 10.8764 9.20271 10.8319L10.615 10.4895C11.1283 10.365 11.1283 9.635 10.615 9.51054L9.20271 9.16807C9.01945 9.12363 8.87637 8.98055 8.83193 8.79729L8.48946 7.38496Z" fill="url(#paint1_linear_3880_556)"/>
<path fill-rule="evenodd" clip-rule="evenodd" d="M9.5479 25C9.5479 24.5029 9.95085 24.1 10.4479 24.1L26 24.1C26.4971 24.1 26.9 24.5029 26.9 25C26.9 25.4971 26.4971 25.9 26 25.9H10.4479C9.95085 25.9 9.5479 25.4971 9.5479 25Z" fill="url(#paint2_linear_3880_556)"/>
<path d="M15 6C15 6.55228 14.5523 7 14 7C13.4477 7 13 6.55228 13 6C13 5.44772 13.4477 5 14 5C14.5523 5 15 5.44772 15 6Z" fill="url(#paint3_linear_3880_556)"/>
<path d="M8 25C8 25.5523 7.55228 26 7 26C6.44772 26 6 25.5523 6 25C6 24.4477 6.44772 24 7 24C7.55228 24 8 24.4477 8 25Z" fill="url(#paint4_linear_3880_556)"/>
<path d="M27 6C27 6.55228 26.5523 7 26 7C25.4477 7 25 6.55228 25 6C25 5.44772 25.4477 5 26 5C26.5523 5 27 5.44772 27 6Z" fill="url(#paint5_linear_3880_556)"/>
<path fill-rule="evenodd" clip-rule="evenodd" d="M9.5479 25C9.5479 24.5029 9.95085 24.1 10.4479 24.1L26 24.1C26.4971 24.1 26.9 24.5029 26.9 25C26.9 25.4971 26.4971 25.9 26 25.9H10.4479C9.95085 25.9 9.5479 25.4971 9.5479 25Z" fill="url(#paint6_linear_3880_556)"/>
<path fill-rule="evenodd" clip-rule="evenodd" d="M22.5908 6.65527C23.0466 6.65527 23.4978 6.7455 23.9189 6.91992C24.3399 7.09432 24.7227 7.3497 25.0449 7.67188C25.3671 7.99412 25.6235 8.37686 25.7979 8.79785C25.9721 9.21876 26.0615 9.67042 26.0615 10.126C26.0615 10.5816 25.9722 11.0341 25.7979 11.4551C25.6234 11.8759 25.367 12.2589 25.0449 12.5811L24.1006 13.5244C24.0949 13.5305 24.09 13.538 24.084 13.5439C24.0779 13.55 24.0707 13.5547 24.0645 13.5605L14.9443 22.6816C14.8038 22.822 14.6127 22.9012 14.4141 22.9014H10.5654C10.1514 22.9014 9.81569 22.5654 9.81543 22.1514V18.3037C9.81543 18.1049 9.89468 17.9141 10.0352 17.7734L20.1367 7.67188C20.459 7.34968 20.8417 7.09433 21.2627 6.91992C21.6838 6.74549 22.135 6.65528 22.5908 6.65527ZM11.3154 18.6143V21.4014H14.1025L22.4912 13.0127L19.7041 10.2246L11.3154 18.6143ZM22.5908 8.15527C22.3321 8.15528 22.076 8.20666 21.8369 8.30566C21.5979 8.40469 21.3802 8.5495 21.1973 8.73242L20.7646 9.16406L23.5527 11.9512L23.9844 11.5205C24.1673 11.3376 24.3131 11.1198 24.4121 10.8809C24.5111 10.6419 24.5615 10.3847 24.5615 10.126C24.5615 9.86744 24.511 9.61095 24.4121 9.37207C24.3131 9.13304 24.1673 8.9154 23.9844 8.73242C23.8014 8.54953 23.5837 8.40468 23.3447 8.30566C23.1057 8.20668 22.8496 8.15527 22.5908 8.15527Z" fill="url(#paint7_linear_3880_556)"/>
</g>
<defs>
<linearGradient id="paint0_linear_3880_556" x1="16" y1="5" x2="16" y2="26" gradientUnits="userSpaceOnUse">
<stop stop-color="#5F94F3"/>
<stop offset="1" stop-color="#C681E7"/>
</linearGradient>
<linearGradient id="paint1_linear_3880_556" x1="16" y1="5" x2="16" y2="26" gradientUnits="userSpaceOnUse">
<stop stop-color="#5F94F3"/>
<stop offset="1" stop-color="#C681E7"/>
</linearGradient>
<linearGradient id="paint2_linear_3880_556" x1="16" y1="5" x2="16" y2="26" gradientUnits="userSpaceOnUse">
<stop stop-color="#5F94F3"/>
<stop offset="1" stop-color="#C681E7"/>
</linearGradient>
<linearGradient id="paint3_linear_3880_556" x1="16" y1="5" x2="16" y2="26" gradientUnits="userSpaceOnUse">
<stop stop-color="#5F94F3"/>
<stop offset="1" stop-color="#C681E7"/>
</linearGradient>
<linearGradient id="paint4_linear_3880_556" x1="16" y1="5" x2="16" y2="26" gradientUnits="userSpaceOnUse">
<stop stop-color="#5F94F3"/>
<stop offset="1" stop-color="#C681E7"/>
</linearGradient>
<linearGradient id="paint5_linear_3880_556" x1="16" y1="5" x2="16" y2="26" gradientUnits="userSpaceOnUse">
<stop stop-color="#5F94F3"/>
<stop offset="1" stop-color="#C681E7"/>
</linearGradient>
<linearGradient id="paint6_linear_3880_556" x1="16" y1="5" x2="16" y2="26" gradientUnits="userSpaceOnUse">
<stop stop-color="#5F94F3"/>
<stop offset="1" stop-color="#C681E7"/>
</linearGradient>
<linearGradient id="paint7_linear_3880_556" x1="17.9385" y1="6.65527" x2="17.9385" y2="22.9014" gradientUnits="userSpaceOnUse">
<stop stop-color="#5F94F3"/>
<stop offset="1" stop-color="#C681E7"/>
</linearGradient>
<clipPath id="clip0_3880_556">
<rect width="24" height="24" fill="white" transform="translate(4 4)"/>
</clipPath>
</defs>
</svg>
