<svg width="32" height="32" viewBox="0 0 32 32" fill="none" xmlns="http://www.w3.org/2000/svg">
<circle cx="16.9905" cy="14.8362" r="5.73071" fill="url(#paint0_linear_3839_530)" fill-opacity="0.6"/>
<path fill-rule="evenodd" clip-rule="evenodd" d="M13.8486 5.5C14.6441 5.50007 15.4071 5.81636 15.9696 6.37891C16.3773 6.78663 16.653 7.30013 16.7753 7.85449C17.2946 8.14633 17.7788 8.49428 18.2187 8.8916C18.6282 9.26168 18.6606 9.89392 18.2909 10.3037C17.9208 10.7135 17.2877 10.746 16.8778 10.376C16.4443 9.98439 15.9537 9.65631 15.4208 9.4043C15.0713 9.23897 14.8486 8.88665 14.8486 8.5C14.8486 8.23484 14.743 7.98049 14.5556 7.79297C14.3681 7.60549 14.1137 7.50007 13.8486 7.5C13.5834 7.5 13.329 7.60551 13.1415 7.79297C12.954 7.98051 12.8486 8.23478 12.8486 8.5C12.8486 8.88658 12.6257 9.23893 12.2763 9.4043C11.292 9.86973 10.4525 10.5941 9.84855 11.5C9.24692 12.4024 8.9017 13.451 8.84855 14.5342V17.5C8.84855 17.5401 8.84653 17.5803 8.84171 17.6201C8.76145 18.2832 8.548 18.9221 8.21769 19.5H19.4794C19.1491 18.9221 18.9357 18.2833 18.8554 17.6201C18.8506 17.5803 18.8486 17.5401 18.8486 17.5V16C18.8486 15.4477 19.2963 15 19.8486 15C20.4007 15.0001 20.8486 15.4478 20.8486 16V17.4258C20.9101 17.8753 21.0712 18.3057 21.3232 18.6836C21.5837 19.0743 21.9331 19.3985 22.3417 19.6299C22.7365 19.8538 22.931 20.3159 22.8153 20.7549C22.6996 21.1939 22.3026 21.4999 21.8486 21.5H17.8486V22.5C17.8486 23.5608 17.4268 24.578 16.6767 25.3281C15.9265 26.0783 14.9094 26.5 13.8486 26.5C12.7877 26.5 11.7706 26.0782 11.0204 25.3281C10.2703 24.578 9.84855 23.5609 9.84855 22.5V21.5H5.84855C5.39446 21.5 4.99753 21.1939 4.88175 20.7549C4.76607 20.3158 4.96042 19.8537 5.35539 19.6299C5.76401 19.3985 6.11345 19.0743 6.37394 18.6836C6.62583 18.3057 6.78705 17.8753 6.84855 17.4258V14.5C6.84855 14.4844 6.84879 14.4687 6.84953 14.4531C6.9176 13.0029 7.37918 11.5986 8.18449 10.3906C8.88551 9.33913 9.82375 8.4701 10.9208 7.85352C11.0432 7.2994 11.3199 6.78646 11.7275 6.37891C12.2901 5.81637 13.053 5.5 13.8486 5.5ZM6.35832 23.8232C6.91053 23.8233 7.35832 24.271 7.35832 24.8232C7.35809 25.3753 6.9104 25.8232 6.35832 25.8232C5.80617 25.8232 5.35854 25.3753 5.35832 24.8232C5.35832 24.271 5.80603 23.8232 6.35832 23.8232ZM11.8486 22.5C11.8486 23.0304 12.0594 23.539 12.4345 23.9141C12.8096 24.2891 13.3181 24.5 13.8486 24.5C14.379 24.5 14.8876 24.2891 15.2626 23.9141C15.6377 23.539 15.8486 23.0304 15.8486 22.5V21.5H11.8486V22.5ZM26.1523 15.9619C26.7044 15.9621 27.1523 16.4097 27.1523 16.9619C27.1523 17.5141 26.7044 17.9618 26.1523 17.9619C25.6 17.9619 25.1523 17.5142 25.1523 16.9619C25.1523 16.4096 25.6 15.9619 26.1523 15.9619ZM21.54 8.35449C21.7845 7.79359 22.6491 7.83417 22.8046 8.47559L23.2616 10.3584C23.3209 10.6027 23.5115 10.7933 23.7558 10.8525L25.6386 11.3096C26.323 11.4755 26.323 12.4483 25.6386 12.6143L23.7558 13.0713C23.5115 13.1305 23.3209 13.3212 23.2616 13.5654L22.8046 15.4482C22.6387 16.1326 21.6649 16.1326 21.4989 15.4482L21.0429 13.5654C21.0392 13.5502 21.0349 13.5353 21.0302 13.5205C20.9596 13.2981 20.7776 13.1269 20.5487 13.0713L18.665 12.6143L18.6571 12.6123C17.9811 12.4406 17.9837 11.4751 18.665 11.3096L20.5487 10.8525C20.7929 10.7932 20.9837 10.6026 21.0429 10.3584L21.4989 8.47559C21.5093 8.43281 21.5237 8.39192 21.54 8.35449Z" fill="url(#paint1_linear_3839_530)"/>
<defs>
<linearGradient id="paint0_linear_3839_530" x1="16.9905" y1="9.10547" x2="16.9905" y2="20.5669" gradientUnits="userSpaceOnUse">
<stop stop-color="#5196F5"/>
<stop offset="1" stop-color="#C880E7"/>
</linearGradient>
<linearGradient id="paint1_linear_3839_530" x1="16.0004" y1="5.5" x2="16.0004" y2="26.5" gradientUnits="userSpaceOnUse">
<stop stop-color="#5F94F3"/>
<stop offset="1" stop-color="#C681E7"/>
</linearGradient>
</defs>
</svg>
