<svg width="24" height="24" viewBox="0 0 24 24" fill="none" xmlns="http://www.w3.org/2000/svg">
<g clip-path="url(#clip0_3669_16529)">
<path d="M16 19.0002C15.7348 19.0002 15.4804 18.8949 15.2929 18.7073C15.1054 18.5198 15 18.2655 15 18.0002C15 17.735 15.1054 17.4807 15.2929 17.2931C15.4804 17.1056 15.7348 17.0002 16 17.0002C16.2652 17.0002 16.5196 16.8949 16.7071 16.7073C16.8946 16.5198 17 16.2655 17 16.0002C17 14.6672 19 14.6672 19 16.0002C19 16.2655 19.1054 16.5198 19.2929 16.7073C19.4804 16.8949 19.7348 17.0002 20 17.0002C21.333 17.0002 21.333 19.0002 20 19.0002C19.7348 19.0002 19.4804 19.1056 19.2929 19.2931C19.1054 19.4807 19 19.735 19 20.0002C19 21.3332 17 21.3332 17 20.0002C17 19.735 16.8946 19.4807 16.7071 19.2931C16.5196 19.1056 16.2652 19.0002 16 19.0002Z" fill="#243C86"/>
<path d="M2.99975 11.0002C4.32583 11.0002 5.5976 10.4735 6.53528 9.53577C7.47297 8.59809 7.99975 7.32632 7.99975 6.00024C7.99975 4.66724 9.99975 4.66724 9.99975 6.00024C9.99975 7.32632 10.5265 8.59809 11.4642 9.53577C12.4019 10.4735 13.6737 11.0002 14.9998 11.0002C16.3328 11.0002 16.3328 13.0002 14.9998 13.0002C13.6737 13.0002 12.4019 13.527 11.4642 14.4647C10.5265 15.4024 9.99975 16.6742 9.99975 18.0002C9.99975 18.2655 9.89439 18.5198 9.70686 18.7073C9.51932 18.8949 9.26497 19.0002 8.99975 19.0002C8.73453 19.0002 8.48018 18.8949 8.29264 18.7073C8.10511 18.5198 7.99975 18.2655 7.99975 18.0002C7.99975 16.6742 7.47297 15.4024 6.53528 14.4647C5.5976 13.527 4.32583 13.0002 2.99975 13.0002C1.66675 13.0002 1.66675 11.0002 2.99975 11.0002Z" fill="#243C86"/>
<path d="M16 7.00024C15.7348 7.00024 15.4804 6.89488 15.2929 6.70734C15.1054 6.51981 15 6.26545 15 6.00024C15 5.73502 15.1054 5.48067 15.2929 5.29313C15.4804 5.1056 15.7348 5.00024 16 5.00024C16.2652 5.00024 16.5196 4.89488 16.7071 4.70734C16.8946 4.51981 17 4.26545 17 4.00024C17 2.66724 19 2.66724 19 4.00024C19 4.26545 19.1054 4.51981 19.2929 4.70734C19.4804 4.89488 19.7348 5.00024 20 5.00024C21.333 5.00024 21.333 7.00024 20 7.00024C19.7348 7.00024 19.4804 7.1056 19.2929 7.29313C19.1054 7.48067 19 7.73502 19 8.00024C19 9.33324 17 9.33324 17 8.00024C17 7.73502 16.8946 7.48067 16.7071 7.29313C16.5196 7.1056 16.2652 7.00024 16 7.00024Z" fill="#243C86"/>
</g>
<defs>
<clipPath id="clip0_3669_16529">
<rect width="24" height="24" fill="white"/>
</clipPath>
</defs>
</svg>
