<svg width="32" height="32" viewBox="0 0 32 32" fill="none" xmlns="http://www.w3.org/2000/svg">
<path d="M24 9.17676C24.5523 9.17676 25 9.62447 25 10.1768C24.9998 10.7289 24.5522 11.1768 24 11.1768H22.9551C22.9564 11.2238 22.9579 11.271 22.9561 11.3184L22.499 22.9219L22.498 22.9209C22.4783 24.5718 21.1967 26 19.5 26H14.4248C13.8725 26 13.4248 25.5523 13.4248 25C13.4248 24.4477 13.8725 24 14.4248 24H19.5C19.9991 24 20.4998 23.5544 20.5 22.8828V22.8623L20.501 22.8428L20.957 11.2402C20.9583 11.2078 20.9484 11.1871 20.9404 11.1768H11.0596C11.0516 11.1871 11.0417 11.2078 11.043 11.2402V11.4443L11.3174 18.6406C11.3384 19.1924 10.9082 19.6565 10.3564 19.6777C9.80456 19.6988 9.33942 19.2687 9.31836 18.7168L9.04395 11.5205C9.04346 11.5079 9.04297 11.4951 9.04297 11.4824V11.2793H9.04395C9.04324 11.245 9.04394 11.2109 9.04492 11.1768H8C7.44781 11.1768 7.00016 10.7289 7 10.1768C7 9.62447 7.44772 9.17676 8 9.17676H24ZM14 13.4121C14.5523 13.4121 15 13.8598 15 14.4121V20.7646C15 21.3169 14.5523 21.7646 14 21.7646C13.4477 21.7646 13 21.3169 13 20.7646V14.4121C13 13.8598 13.4477 13.4121 14 13.4121ZM18 13.4121C18.5523 13.4121 19 13.8598 19 14.4121V20.7646C19 21.3169 18.5523 21.7646 18 21.7646C17.4477 21.7646 17 21.3169 17 20.7646V14.4121C17 13.8598 17.4477 13.4121 18 13.4121ZM19 6C19.5523 6 20 6.44772 20 7C20 7.55228 19.5523 8 19 8H13C12.4477 8 12 7.55228 12 7C12 6.44772 12.4477 6 13 6H19Z" fill="url(#paint0_linear_3873_9115)"/>
<path d="M26.5934 21.4979C26.5934 22.0501 26.1457 22.4979 25.5934 22.4979C25.0411 22.4979 24.5934 22.0501 24.5934 21.4979C24.5934 20.9456 25.0411 20.4979 25.5934 20.4979C26.1457 20.4979 26.5934 20.9456 26.5934 21.4979Z" fill="url(#paint1_linear_3873_9115)"/>
<path d="M10.1335 21.3209C10.2372 20.8932 10.8455 20.8932 10.9493 21.3209L11.2346 22.4979C11.2717 22.6506 11.3909 22.7698 11.5436 22.8068L12.7206 23.0922C13.1483 23.196 13.1483 23.8043 12.7206 23.908L11.5436 24.1934C11.5245 24.198 11.506 24.2039 11.488 24.211C11.3624 24.2608 11.267 24.3688 11.2346 24.5024L10.9493 25.6793C10.9428 25.7061 10.9343 25.7311 10.9241 25.7545C10.7715 26.1054 10.2307 26.0803 10.1335 25.6793L9.84809 24.5024C9.84578 24.4928 9.84314 24.4834 9.84019 24.4742C9.79602 24.3351 9.68228 24.2281 9.53911 24.1934L8.36217 23.908C8.33544 23.9015 8.31037 23.8931 8.28698 23.8829C7.9361 23.7302 7.96117 23.1895 8.36217 23.0922L9.53911 22.8068C9.69182 22.7698 9.81106 22.6506 9.84809 22.4979L10.1335 21.3209Z" fill="url(#paint2_linear_3873_9115)"/>
<path d="M9.53809 6.15137C9.53809 6.70365 9.09037 7.15137 8.53809 7.15137C7.9858 7.15137 7.53809 6.70365 7.53809 6.15137C7.53809 5.59908 7.9858 5.15137 8.53809 5.15137C9.09037 5.15137 9.53809 5.59908 9.53809 6.15137Z" fill="url(#paint3_linear_3873_9115)"/>
<defs>
<linearGradient id="paint0_linear_3873_9115" x1="16" y1="6" x2="16" y2="26" gradientUnits="userSpaceOnUse">
<stop stop-color="#5F94F3"/>
<stop offset="1" stop-color="#C681E7"/>
</linearGradient>
<linearGradient id="paint1_linear_3873_9115" x1="17.0658" y1="5.15137" x2="17.0658" y2="26.0001" gradientUnits="userSpaceOnUse">
<stop stop-color="#5F94F3"/>
<stop offset="1" stop-color="#C681E7"/>
</linearGradient>
<linearGradient id="paint2_linear_3873_9115" x1="17.0658" y1="5.15137" x2="17.0658" y2="26.0001" gradientUnits="userSpaceOnUse">
<stop stop-color="#5F94F3"/>
<stop offset="1" stop-color="#C681E7"/>
</linearGradient>
<linearGradient id="paint3_linear_3873_9115" x1="17.0658" y1="5.15137" x2="17.0658" y2="26.0001" gradientUnits="userSpaceOnUse">
<stop stop-color="#5F94F3"/>
<stop offset="1" stop-color="#C681E7"/>
</linearGradient>
</defs>
</svg>
