<svg width="24" height="24" viewBox="0 0 24 24" fill="none" xmlns="http://www.w3.org/2000/svg">
<path d="M6 17.9997H9L16.875 10.1247C17.072 9.92776 17.2282 9.6939 17.3348 9.43653C17.4415 9.17916 17.4963 8.90331 17.4963 8.62474C17.4963 8.34616 17.4415 8.07031 17.3348 7.81294C17.2282 7.55557 17.072 7.32172 16.875 7.12474C16.678 6.92776 16.4442 6.7715 16.1868 6.66489C15.9294 6.55829 15.6536 6.50342 15.375 6.50342C15.0964 6.50342 14.8206 6.55829 14.5632 6.66489C14.3058 6.7715 14.072 6.92776 13.875 7.12474L6 14.9997V17.9997Z" stroke="#4285F4" stroke-linecap="round" stroke-linejoin="round"/>
<path d="M13.125 7.875L16.125 10.875" stroke="#4285F4" stroke-linecap="round" stroke-linejoin="round"/>
</svg>
