<svg width="19" height="21" viewBox="0 0 19 21" fill="none" xmlns="http://www.w3.org/2000/svg">
<path d="M9.44475 2.5725C11.2997 2.5725 13.0497 2.97063 14.6947 3.76687C16.3397 4.56312 17.7135 5.71375 18.816 7.21875C18.9385 7.37625 18.9779 7.51625 18.9341 7.63875C18.8904 7.76125 18.816 7.86625 18.711 7.95375C18.606 8.04125 18.4835 8.08062 18.3435 8.07187C18.2035 8.06312 18.081 7.98875 17.976 7.84875C17.0135 6.48375 15.7754 5.43812 14.2616 4.71187C12.7479 3.98563 11.1422 3.6225 9.44475 3.6225C7.74725 3.6225 6.15475 3.98563 4.66725 4.71187C3.17975 5.43812 1.946 6.48375 0.966 7.84875C0.861 8.00625 0.7385 8.09375 0.5985 8.11125C0.4585 8.12875 0.336 8.09375 0.231 8.00625C0.1085 7.91875 0.034125 7.80937 0.007875 7.67812C-0.018375 7.54687 0.021 7.41125 0.126 7.27125C1.211 5.78375 2.57162 4.62875 4.20787 3.80625C5.84412 2.98375 7.58975 2.5725 9.44475 2.5725ZM9.44475 5.04C11.8072 5.04 13.8372 5.8275 15.5347 7.4025C17.2322 8.9775 18.081 10.9287 18.081 13.2562C18.081 14.1312 17.7704 14.8619 17.1491 15.4481C16.5279 16.0344 15.771 16.3275 14.8785 16.3275C13.986 16.3275 13.2204 16.0344 12.5816 15.4481C11.9429 14.8619 11.6235 14.1312 11.6235 13.2562C11.6235 12.6787 11.4091 12.1931 10.9804 11.7994C10.5516 11.4056 10.0397 11.2087 9.44475 11.2087C8.84975 11.2087 8.33787 11.4056 7.90912 11.7994C7.48037 12.1931 7.266 12.6787 7.266 13.2562C7.266 14.9537 7.76912 16.3712 8.77537 17.5087C9.78162 18.6462 11.081 19.4425 12.6735 19.8975C12.831 19.95 12.936 20.0375 12.9885 20.16C13.041 20.2825 13.0498 20.4138 13.0147 20.5537C12.9797 20.6762 12.9097 20.7812 12.8047 20.8687C12.6997 20.9562 12.5685 20.9825 12.411 20.9475C10.591 20.4925 9.1035 19.5869 7.9485 18.2306C6.7935 16.8744 6.216 15.2162 6.216 13.2562C6.216 12.3812 6.531 11.6462 7.161 11.0512C7.791 10.4562 8.55225 10.1587 9.44475 10.1587C10.3372 10.1587 11.0985 10.4562 11.7285 11.0512C12.3585 11.6462 12.6735 12.3812 12.6735 13.2562C12.6735 13.8337 12.8922 14.3194 13.3297 14.7131C13.7672 15.1069 14.2835 15.3037 14.8785 15.3037C15.4735 15.3037 15.981 15.1069 16.401 14.7131C16.821 14.3194 17.031 13.8337 17.031 13.2562C17.031 11.2262 16.2872 9.52 14.7997 8.1375C13.3122 6.755 11.536 6.06375 9.471 6.06375C7.406 6.06375 5.62975 6.755 4.14225 8.1375C2.65475 9.52 1.911 11.2175 1.911 13.23C1.911 13.65 1.95037 14.175 2.02912 14.805C2.10787 15.435 2.296 16.17 2.5935 17.01C2.646 17.1675 2.64162 17.3075 2.58037 17.43C2.51912 17.5525 2.4185 17.64 2.2785 17.6925C2.1385 17.745 2.00287 17.7406 1.87162 17.6794C1.74037 17.6181 1.6485 17.5175 1.596 17.3775C1.3335 16.695 1.14537 16.0169 1.03162 15.3431C0.917875 14.6694 0.861 13.9737 0.861 13.2562C0.861 10.9287 1.70537 8.9775 3.39412 7.4025C5.08288 5.8275 7.09975 5.04 9.44475 5.04ZM9.44475 0C10.5647 0 11.6585 0.135625 12.726 0.406875C13.7935 0.678125 14.826 1.0675 15.8235 1.575C15.981 1.6625 16.0729 1.7675 16.0991 1.89C16.1254 2.0125 16.1122 2.135 16.0597 2.2575C16.0072 2.38 15.9197 2.47625 15.7972 2.54625C15.6747 2.61625 15.526 2.6075 15.351 2.52C14.4235 2.0475 13.4654 1.68437 12.4766 1.43062C11.4879 1.17687 10.4772 1.05 9.44475 1.05C8.42975 1.05 7.43225 1.16812 6.45225 1.40437C5.47225 1.64062 4.536 2.0125 3.6435 2.52C3.5035 2.6075 3.3635 2.62938 3.2235 2.58562C3.0835 2.54187 2.9785 2.45 2.9085 2.31C2.8385 2.17 2.821 2.04312 2.856 1.92937C2.891 1.81562 2.9785 1.715 3.1185 1.6275C4.0985 1.1025 5.12225 0.7 6.18975 0.42C7.25725 0.14 8.34225 0 9.44475 0ZM9.44475 7.58625C11.0722 7.58625 12.4722 8.13313 13.6447 9.22687C14.8172 10.3206 15.4035 11.6637 15.4035 13.2562C15.4035 13.4137 15.3554 13.5406 15.2591 13.6369C15.1629 13.7331 15.036 13.7812 14.8785 13.7812C14.7385 13.7812 14.616 13.7331 14.511 13.6369C14.406 13.5406 14.3535 13.4137 14.3535 13.2562C14.3535 11.9437 13.8679 10.8456 12.8966 9.96187C11.9254 9.07813 10.7747 8.63625 9.44475 8.63625C8.11475 8.63625 6.97287 9.07813 6.01912 9.96187C5.06537 10.8456 4.5885 11.9437 4.5885 13.2562C4.5885 14.6737 4.8335 15.8769 5.3235 16.8656C5.8135 17.8544 6.531 18.8475 7.476 19.845C7.581 19.95 7.6335 20.0725 7.6335 20.2125C7.6335 20.3525 7.581 20.475 7.476 20.58C7.371 20.685 7.2485 20.7375 7.1085 20.7375C6.9685 20.7375 6.846 20.685 6.741 20.58C5.7085 19.495 4.91662 18.3881 4.36537 17.2594C3.81412 16.1306 3.5385 14.7962 3.5385 13.2562C3.5385 11.6637 4.116 10.3206 5.271 9.22687C6.426 8.13313 7.81725 7.58625 9.44475 7.58625ZM9.4185 12.7312C9.576 12.7312 9.70288 12.7837 9.79913 12.8887C9.89537 12.9937 9.9435 13.1162 9.9435 13.2562C9.9435 14.5687 10.416 15.645 11.361 16.485C12.306 17.325 13.4085 17.745 14.6685 17.745C14.7735 17.745 14.9222 17.7362 15.1147 17.7187C15.3072 17.7012 15.5085 17.675 15.7185 17.64C15.876 17.605 16.0116 17.6269 16.1254 17.7056C16.2391 17.7844 16.3135 17.9025 16.3485 18.06C16.3835 18.2 16.3572 18.3225 16.2697 18.4275C16.1822 18.5325 16.0685 18.6025 15.9285 18.6375C15.6135 18.725 15.3379 18.7731 15.1016 18.7819C14.8654 18.7906 14.721 18.795 14.6685 18.795C13.111 18.795 11.7591 18.27 10.6129 17.22C9.46662 16.17 8.8935 14.8487 8.8935 13.2562C8.8935 13.1162 8.94163 12.9937 9.03787 12.8887C9.13412 12.7837 9.261 12.7312 9.4185 12.7312Z" fill="#0187F5"/>
</svg>
