<svg width="14" height="14" viewBox="0 0 14 14" fill="none" xmlns="http://www.w3.org/2000/svg">
<g clip-path="url(#clip0_3669_16521)">
<path d="M2.74028 2.35303L12.2498 6.99986L2.74028 11.6467C2.68599 11.6676 2.62674 11.6718 2.57003 11.6589C2.51332 11.6461 2.46172 11.6166 2.42178 11.5744C2.38066 11.531 2.35235 11.4771 2.34 11.4186C2.32764 11.3601 2.33172 11.2993 2.35178 11.243L3.79144 6.99986L2.35178 2.75669C2.33172 2.70039 2.32764 2.63963 2.34 2.58115C2.35235 2.52266 2.38066 2.46874 2.42178 2.42536C2.46172 2.3831 2.51332 2.35366 2.57003 2.34078C2.62674 2.3279 2.68599 2.33217 2.74028 2.35303Z" stroke="black" stroke-linecap="round" stroke-linejoin="round"/>
<path d="M3.79199 7H12.2503" stroke="black" stroke-linecap="round" stroke-linejoin="round"/>
</g>
<defs>
<clipPath id="clip0_3669_16521">
<rect width="14" height="14" fill="white"/>
</clipPath>
</defs>
</svg>
