<svg width="32" height="32" viewBox="0 0 32 32" fill="none" xmlns="http://www.w3.org/2000/svg">
<path fill-rule="evenodd" clip-rule="evenodd" d="M21.3876 6.59611C21.6318 6.0347 22.497 6.0748 22.6526 6.71641L23.1092 8.59951C23.1685 8.84385 23.3593 9.03463 23.6036 9.09388L25.4867 9.5505C26.1711 9.71646 26.1711 10.6898 25.4867 10.8557L23.6036 11.3124C23.3593 11.3716 23.1685 11.5624 23.1092 11.8067L22.6526 13.6898C22.4867 14.3742 21.5133 14.3742 21.3474 13.6898L20.8908 11.8067C20.8871 11.7915 20.8828 11.7764 20.8781 11.7616C20.8074 11.5391 20.6255 11.3679 20.3964 11.3124L18.5133 10.8557L18.5053 10.8538C17.8289 10.6822 17.8316 9.71581 18.5133 9.5505L20.3964 9.09388C20.6407 9.03463 20.8315 8.84385 20.8908 8.59951L21.3474 6.71641C21.3578 6.67363 21.3713 6.63353 21.3876 6.59611ZM7 18.2031C7 18.7554 6.55228 19.2031 6 19.2031C5.44772 19.2031 5 18.7554 5 18.2031C5 17.6508 5.44772 17.2031 6 17.2031C6.55228 17.2031 7 17.6508 7 18.2031ZM26 16.2031C26.5523 16.2031 27 15.7554 27 15.2031C27 14.6508 26.5523 14.2031 26 14.2031C25.4477 14.2031 25 14.6508 25 15.2031C25 15.7554 25.4477 16.2031 26 16.2031ZM10 11.4031C10.6627 11.4031 11.2 10.8659 11.2 10.2031C11.2 9.54038 10.6627 9.00312 10 9.00312C9.33726 9.00312 8.8 9.54038 8.8 10.2031C8.8 10.8659 9.33726 11.4031 10 11.4031ZM12.8658 11.0932C12.5848 11.9988 11.8863 12.7208 10.9953 13.0341C10.9984 13.0635 11 13.0934 11 13.1236L11 20.2827C11 20.3129 10.9984 20.3427 10.9953 20.3722C11.8863 20.6854 12.5848 21.4074 12.8658 22.3131C12.9096 22.3065 12.9544 22.3031 13 22.3031H19C19.0456 22.3031 19.0904 22.3065 19.1342 22.3131C19.4262 21.372 20.1689 20.6293 21.1099 20.3374C21.1034 20.2936 21.1 20.2487 21.1 20.2031V17.2031C21.1 16.7061 21.5029 16.3031 22 16.3031C22.497 16.3031 22.9 16.7061 22.9 17.2031V20.2031C22.9 20.2487 22.8966 20.2936 22.89 20.3374C24.1123 20.7165 25 21.8562 25 23.2031C25 24.86 23.6569 26.2031 22 26.2031C20.653 26.2031 19.5134 25.3154 19.1342 24.0932C19.0904 24.0997 19.0456 24.1031 19 24.1031H13C12.9544 24.1031 12.9096 24.0997 12.8658 24.0932C12.4866 25.3154 11.3469 26.2031 10 26.2031C8.34315 26.2031 7 24.86 7 23.2031C7 21.8952 7.83704 20.7827 9.00467 20.3722C9.00158 20.3427 9 20.3129 9 20.2827V13.1236C9 13.0934 9.00158 13.0635 9.00467 13.0341C7.83704 12.6235 7 11.5111 7 10.2031C7 8.54627 8.34315 7.20312 10 7.20312C11.3469 7.20312 12.4866 8.09081 12.8658 9.31307C12.9096 9.30652 12.9544 9.30312 13 9.30312H15C15.4971 9.30312 15.9 9.70607 15.9 10.2031C15.9 10.7002 15.4971 11.1031 15 11.1031H13C12.9544 11.1031 12.9096 11.0997 12.8658 11.0932ZM11.2 23.2031C11.2 23.8659 10.6627 24.4031 10 24.4031C9.33726 24.4031 8.8 23.8659 8.8 23.2031C8.8 22.5404 9.33726 22.0031 10 22.0031C10.6627 22.0031 11.2 22.5404 11.2 23.2031ZM22 24.4031C22.6627 24.4031 23.2 23.8659 23.2 23.2031C23.2 22.5404 22.6627 22.0031 22 22.0031C21.3373 22.0031 20.8 22.5404 20.8 23.2031C20.8 23.8659 21.3373 24.4031 22 24.4031Z" fill="url(#paint0_linear_7_42)"/>
<path d="M12 14.4031C12 13.3031 13.1111 12.2031 14.2222 12.2031H21C21.5523 12.2031 22 12.6508 22 13.2031V21.2031C21 22.2031 21 22.2031 20 23.2031H13C12.4477 23.2031 12 22.7554 12 22.2031V14.4031Z" fill="url(#paint1_linear_7_42)" fill-opacity="0.6"/>
<defs>
<linearGradient id="paint0_linear_7_42" x1="16" y1="6.20312" x2="16" y2="26.2031" gradientUnits="userSpaceOnUse">
<stop stop-color="#5F94F3"/>
<stop offset="1" stop-color="#C681E7"/>
</linearGradient>
<linearGradient id="paint1_linear_7_42" x1="17" y1="12.2031" x2="17" y2="23.2031" gradientUnits="userSpaceOnUse">
<stop stop-color="#7490F0"/>
<stop offset="1" stop-color="#C282E7"/>
</linearGradient>
</defs>
</svg>
