<svg width="56" height="56" viewBox="0 0 56 56" fill="none" xmlns="http://www.w3.org/2000/svg">
<g clip-path="url(#clip0_3788_35415)">
<rect width="56" height="56" rx="16" fill="url(#paint0_linear_3788_35415)"/>
<g filter="url(#filter0_d_3788_35415)">
<rect width="56" height="56" rx="16" fill="white" fill-opacity="0.01" shape-rendering="crispEdges"/>
</g>
<path d="M32.125 33.875L33.875 32.125L29.25 27.5V21.75H26.75V28.5L32.125 33.875ZM28 40.5C26.2708 40.5 24.6458 40.1719 23.125 39.5156C21.6042 38.8594 20.2812 37.9688 19.1562 36.8438C18.0312 35.7188 17.1406 34.3958 16.4844 32.875C15.8281 31.3542 15.5 29.7292 15.5 28C15.5 26.2708 15.8281 24.6458 16.4844 23.125C17.1406 21.6042 18.0312 20.2812 19.1562 19.1562C20.2812 18.0312 21.6042 17.1406 23.125 16.4844C24.6458 15.8281 26.2708 15.5 28 15.5C29.7292 15.5 31.3542 15.8281 32.875 16.4844C34.3958 17.1406 35.7188 18.0312 36.8438 19.1562C37.9688 20.2812 38.8594 21.6042 39.5156 23.125C40.1719 24.6458 40.5 26.2708 40.5 28C40.5 29.7292 40.1719 31.3542 39.5156 32.875C38.8594 34.3958 37.9688 35.7188 36.8438 36.8438C35.7188 37.9688 34.3958 38.8594 32.875 39.5156C31.3542 40.1719 29.7292 40.5 28 40.5Z" fill="#F0F2FF"/>
</g>
<defs>
<filter id="filter0_d_3788_35415" x="-38" y="-13" width="132" height="132" filterUnits="userSpaceOnUse" color-interpolation-filters="sRGB">
<feFlood flood-opacity="0" result="BackgroundImageFix"/>
<feColorMatrix in="SourceAlpha" type="matrix" values="0 0 0 0 0 0 0 0 0 0 0 0 0 0 0 0 0 0 127 0" result="hardAlpha"/>
<feMorphology radius="12" operator="erode" in="SourceAlpha" result="effect1_dropShadow_3788_35415"/>
<feOffset dy="25"/>
<feGaussianBlur stdDeviation="25"/>
<feComposite in2="hardAlpha" operator="out"/>
<feColorMatrix type="matrix" values="0 0 0 0 0 0 0 0 0 0.345098 0 0 0 0 0.733333 0 0 0 0.3 0"/>
<feBlend mode="normal" in2="BackgroundImageFix" result="effect1_dropShadow_3788_35415"/>
<feBlend mode="normal" in="SourceGraphic" in2="effect1_dropShadow_3788_35415" result="shape"/>
</filter>
<linearGradient id="paint0_linear_3788_35415" x1="0" y1="0" x2="56" y2="56" gradientUnits="userSpaceOnUse">
<stop stop-color="#0058BB"/>
<stop offset="1" stop-color="#6C9FFF"/>
</linearGradient>
<clipPath id="clip0_3788_35415">
<rect width="56" height="56" fill="white"/>
</clipPath>
</defs>
</svg>
