<svg width="32" height="32" viewBox="0 0 32 32" fill="none" xmlns="http://www.w3.org/2000/svg">
<path fill-rule="evenodd" clip-rule="evenodd" d="M21.3876 6.39298C21.6318 5.83158 22.497 5.87168 22.6526 6.51328L23.1092 8.39639C23.1685 8.64073 23.3593 8.83151 23.6036 8.89075L25.4867 9.34738C26.1711 9.51333 26.1711 10.4867 25.4867 10.6526L23.6036 11.1092C23.3593 11.1685 23.1685 11.3593 23.1092 11.6036L22.6526 13.4867C22.4867 14.1711 21.5133 14.1711 21.3474 13.4867L20.8908 11.6036C20.8871 11.5883 20.8828 11.5733 20.8781 11.5584C20.8074 11.3359 20.6255 11.1648 20.3964 11.1092L18.5133 10.6526L18.5053 10.6506C17.8289 10.4791 17.8316 9.51268 18.5133 9.34738L20.3964 8.89076C20.6407 8.83151 20.8315 8.64073 20.8908 8.39639L21.3474 6.51328C21.3578 6.47051 21.3713 6.43041 21.3876 6.39298ZM7 18C7 18.5523 6.55228 19 6 19C5.44772 19 5 18.5523 5 18C5 17.4477 5.44772 17 6 17C6.55228 17 7 17.4477 7 18ZM26 16C26.5523 16 27 15.5523 27 15C27 14.4477 26.5523 14 26 14C25.4477 14 25 14.4477 25 15C25 15.5523 25.4477 16 26 16ZM10 11.2C10.6627 11.2 11.2 10.6627 11.2 10C11.2 9.33726 10.6627 8.8 10 8.8C9.33726 8.8 8.8 9.33726 8.8 10C8.8 10.6627 9.33726 11.2 10 11.2ZM12.8658 10.8901C12.5848 11.7957 11.8863 12.5177 10.9953 12.8309C10.9984 12.8604 11 12.8903 11 12.9205L11 20.0795C11 20.1097 10.9984 20.1396 10.9953 20.1691C11.8863 20.4823 12.5848 21.2043 12.8658 22.1099C12.9096 22.1034 12.9544 22.1 13 22.1H19C19.0456 22.1 19.0904 22.1034 19.1342 22.11C19.4262 21.1689 20.1689 20.4262 21.1099 20.1342C21.1034 20.0904 21.1 20.0456 21.1 20V17C21.1 16.5029 21.5029 16.1 22 16.1C22.497 16.1 22.9 16.5029 22.9 17V20C22.9 20.0456 22.8966 20.0904 22.89 20.1342C24.1123 20.5134 25 21.653 25 23C25 24.6569 23.6569 26 22 26C20.653 26 19.5134 25.1123 19.1342 23.8901C19.0904 23.8966 19.0456 23.9 19 23.9H13C12.9544 23.9 12.9096 23.8966 12.8658 23.8901C12.4866 25.1123 11.3469 26 10 26C8.34315 26 7 24.6569 7 23C7 21.692 7.83704 20.5796 9.00467 20.1691C9.00158 20.1396 9 20.1097 9 20.0795V12.9205C9 12.8903 9.00158 12.8604 9.00467 12.8309C7.83704 12.4204 7 11.308 7 10C7 8.34315 8.34315 7 10 7C11.3469 7 12.4866 7.88768 12.8658 9.10995C12.9096 9.10339 12.9544 9.1 13 9.1H15C15.4971 9.1 15.9 9.50294 15.9 10C15.9 10.4971 15.4971 10.9 15 10.9H13C12.9544 10.9 12.9096 10.8966 12.8658 10.8901ZM11.2 23C11.2 23.6627 10.6627 24.2 10 24.2C9.33726 24.2 8.8 23.6627 8.8 23C8.8 22.3373 9.33726 21.8 10 21.8C10.6627 21.8 11.2 22.3373 11.2 23ZM22 24.2C22.6627 24.2 23.2 23.6627 23.2 23C23.2 22.3373 22.6627 21.8 22 21.8C21.3373 21.8 20.8 22.3373 20.8 23C20.8 23.6627 21.3373 24.2 22 24.2Z" fill="#243C86"/>
</svg>
