<svg width="24" height="24" viewBox="0 0 24 24" fill="none" xmlns="http://www.w3.org/2000/svg">
<path fill-rule="evenodd" clip-rule="evenodd" d="M13.5195 4.66406C13.8534 4.6642 14.1741 4.79712 14.4102 5.0332C14.6461 5.26936 14.7793 5.58996 14.7793 5.92383V7.70215H18.0762C18.3522 7.70227 18.5762 7.92608 18.5762 8.20215C18.5761 8.47816 18.3522 8.70203 18.0762 8.70215H17.7773L17.0557 17.3584C17.0449 17.8785 16.8352 18.3754 16.4668 18.7441C16.0884 19.1226 15.5742 19.3357 15.0391 19.3359H8.96191C8.42666 19.3359 7.91273 19.1225 7.53418 18.7441C7.16559 18.3754 6.95609 17.8786 6.94531 17.3584L6.22363 8.70215H5.92383C5.64773 8.70215 5.42389 8.47823 5.42383 8.20215C5.42383 7.92601 5.64769 7.70215 5.92383 7.70215H9.22168V5.92383C9.2217 5.5898 9.35463 5.2694 9.59082 5.0332C9.82701 4.79715 10.1475 4.66406 10.4814 4.66406H13.5195ZM7.94141 17.2754C7.94253 17.289 7.94335 17.3028 7.94336 17.3164C7.94339 17.5865 8.05031 17.8461 8.24121 18.0371C8.43223 18.228 8.69188 18.3359 8.96191 18.3359H15.0391C15.309 18.3357 15.5679 18.2279 15.7588 18.0371C15.9498 17.846 16.0576 17.5866 16.0576 17.3164C16.0576 17.3027 16.0584 17.289 16.0596 17.2754L16.7744 8.70215H7.22656L7.94141 17.2754ZM10.4805 10.7402C10.7566 10.7402 10.9805 10.9641 10.9805 11.2402V15.7979C10.9803 16.0738 10.7565 16.2979 10.4805 16.2979C10.2046 16.2976 9.98067 16.0737 9.98047 15.7979V11.2402C9.98047 10.9642 10.2045 10.7405 10.4805 10.7402ZM13.5195 10.7402C13.7955 10.7405 14.0195 10.9642 14.0195 11.2402V15.7979C14.0193 16.0737 13.7953 16.2976 13.5195 16.2979C13.2435 16.2979 13.0197 16.0738 13.0195 15.7979V11.2402C13.0195 10.9641 13.2434 10.7402 13.5195 10.7402ZM10.4814 5.66406C10.4127 5.66406 10.3465 5.69171 10.2979 5.74023C10.2492 5.78889 10.2217 5.85502 10.2217 5.92383V7.70215H13.7793V5.92383C13.7793 5.85518 13.7516 5.78886 13.7031 5.74023C13.6546 5.69169 13.5882 5.6642 13.5195 5.66406H10.4814Z" fill="#4285F4"/>
</svg>
